<?xml version="1.0" encoding="UTF-8"?>
<svg xmlns="http://www.w3.org/2000/svg" width="1024" height="1024" viewBox="0 0 1024 1024">
  <rect width="1024" height="1024" fill="#8B1818"/>
  <path d="M 512.0 72.0 A 440 440 0 1 1 72.0 512.0" fill="none" stroke="#FFFFFF" stroke-width="22" stroke-linecap="round"/>
  <path d="M709 641V458H303V641ZM426 849C422 798 413 725 402 670H312L181 723V-87H201C253 -87 303 -57 303 -42V-8H709V-83H728C773 -83 832 -56 834 -46V619C856 623 870 633 877 642L758 736L699 670H444C491 710 537 759 568 797C591 798 602 807 605 820ZM303 430H709V241H303ZM303 213H709V20H303Z" fill="#FFFFFF" transform="translate(512.0 504.0) scale(0.55 -0.55) translate(-529 -381)"/>
</svg>
